<svg width="800.000000" height="552.000000" viewBox="0 0 800 552" fill="none" xmlns="http://www.w3.org/2000/svg" xmlns:xlink="http://www.w3.org/1999/xlink">
	<desc>
			Created with Pixso.
	</desc>
	<defs>
		<filter id="filter_177_1911_dd" x="0.000000" y="171.000000" width="64.000000" height="64.000000" filterUnits="userSpaceOnUse" color-interpolation-filters="sRGB">
			<feFlood flood-opacity="0" result="BackgroundImageFix"/>
			<feBlend mode="normal" in="SourceGraphic" in2="BackgroundImageFix" result="shape"/>
			<feGaussianBlur stdDeviation="7.66667" result="effect_layerBlur_1"/>
		</filter>
		<filter id="filter_294_2944_dd" x="736.000000" y="302.000000" width="64.000000" height="64.000000" filterUnits="userSpaceOnUse" color-interpolation-filters="sRGB">
			<feFlood flood-opacity="0" result="BackgroundImageFix"/>
			<feBlend mode="normal" in="SourceGraphic" in2="BackgroundImageFix" result="shape"/>
			<feGaussianBlur stdDeviation="7.66667" result="effect_layerBlur_1"/>
		</filter>
		<filter id="filter_177_1914_dd" x="238.000000" y="411.000000" width="38.000000" height="38.000000" filterUnits="userSpaceOnUse" color-interpolation-filters="sRGB">
			<feFlood flood-opacity="0" result="BackgroundImageFix"/>
			<feBlend mode="normal" in="SourceGraphic" in2="BackgroundImageFix" result="shape"/>
			<feGaussianBlur stdDeviation="3.33333" result="effect_layerBlur_1"/>
		</filter>
		<filter id="filter_177_1915_dd" x="164.000000" y="247.000000" width="35.000000" height="35.000000" filterUnits="userSpaceOnUse" color-interpolation-filters="sRGB">
			<feFlood flood-opacity="0" result="BackgroundImageFix"/>
			<feBlend mode="normal" in="SourceGraphic" in2="BackgroundImageFix" result="shape"/>
			<feGaussianBlur stdDeviation="3.66667" result="effect_layerBlur_1"/>
		</filter>
		<filter id="filter_294_2943_dd" x="465.000000" y="198.000000" width="21.000000" height="21.000000" filterUnits="userSpaceOnUse" color-interpolation-filters="sRGB">
			<feFlood flood-opacity="0" result="BackgroundImageFix"/>
			<feBlend mode="normal" in="SourceGraphic" in2="BackgroundImageFix" result="shape"/>
			<feGaussianBlur stdDeviation="1.33333" result="effect_layerBlur_1"/>
		</filter>
		<filter id="filter_294_2935_dd" x="383.000000" y="377.000000" width="42.000000" height="42.000000" filterUnits="userSpaceOnUse" color-interpolation-filters="sRGB">
			<feFlood flood-opacity="0" result="BackgroundImageFix"/>
			<feBlend mode="normal" in="SourceGraphic" in2="BackgroundImageFix" result="shape"/>
			<feGaussianBlur stdDeviation="4" result="effect_layerBlur_1"/>
		</filter>
		<filter id="filter_294_2936_dd" x="542.000000" y="300.000000" width="52.000000" height="52.000000" filterUnits="userSpaceOnUse" color-interpolation-filters="sRGB">
			<feFlood flood-opacity="0" result="BackgroundImageFix"/>
			<feBlend mode="normal" in="SourceGraphic" in2="BackgroundImageFix" result="shape"/>
			<feGaussianBlur stdDeviation="4" result="effect_layerBlur_1"/>
		</filter>
		<filter id="filter_294_2937_dd" x="37.000000" y="387.000000" width="79.000000" height="79.000000" filterUnits="userSpaceOnUse" color-interpolation-filters="sRGB">
			<feFlood flood-opacity="0" result="BackgroundImageFix"/>
			<feBlend mode="normal" in="SourceGraphic" in2="BackgroundImageFix" result="shape"/>
			<feGaussianBlur stdDeviation="8.66667" result="effect_layerBlur_1"/>
		</filter>
		<filter id="filter_294_2938_dd" x="285.000000" y="115.000000" width="42.000000" height="42.000000" filterUnits="userSpaceOnUse" color-interpolation-filters="sRGB">
			<feFlood flood-opacity="0" result="BackgroundImageFix"/>
			<feBlend mode="normal" in="SourceGraphic" in2="BackgroundImageFix" result="shape"/>
			<feGaussianBlur stdDeviation="4" result="effect_layerBlur_1"/>
		</filter>
		<filter id="filter_177_1916_dd" x="405.000000" y="209.000000" width="30.000000" height="30.000000" filterUnits="userSpaceOnUse" color-interpolation-filters="sRGB">
			<feFlood flood-opacity="0" result="BackgroundImageFix"/>
			<feBlend mode="normal" in="SourceGraphic" in2="BackgroundImageFix" result="shape"/>
			<feGaussianBlur stdDeviation="2" result="effect_layerBlur_1"/>
		</filter>
		<filter id="filter_177_1917_dd" x="631.000000" y="369.000000" width="42.000000" height="42.000000" filterUnits="userSpaceOnUse" color-interpolation-filters="sRGB">
			<feFlood flood-opacity="0" result="BackgroundImageFix"/>
			<feBlend mode="normal" in="SourceGraphic" in2="BackgroundImageFix" result="shape"/>
			<feGaussianBlur stdDeviation="4" result="effect_layerBlur_1"/>
		</filter>
		<filter id="filter_177_1918_dd" x="84.000000" y="514.000000" width="38.000000" height="38.000000" filterUnits="userSpaceOnUse" color-interpolation-filters="sRGB">
			<feFlood flood-opacity="0" result="BackgroundImageFix"/>
			<feBlend mode="normal" in="SourceGraphic" in2="BackgroundImageFix" result="shape"/>
			<feGaussianBlur stdDeviation="3.33333" result="effect_layerBlur_1"/>
		</filter>
		<filter id="filter_177_1919_dd" x="470.000000" y="78.000000" width="52.000000" height="52.000000" filterUnits="userSpaceOnUse" color-interpolation-filters="sRGB">
			<feFlood flood-opacity="0" result="BackgroundImageFix"/>
			<feBlend mode="normal" in="SourceGraphic" in2="BackgroundImageFix" result="shape"/>
			<feGaussianBlur stdDeviation="5.66667" result="effect_layerBlur_1"/>
		</filter>
		<filter id="filter_294_2939_dd" x="403.531250" y="245.378662" width="116.467773" height="97.170410" filterUnits="userSpaceOnUse" color-interpolation-filters="sRGB">
			<feFlood flood-opacity="0" result="BackgroundImageFix"/>
			<feBlend mode="normal" in="SourceGraphic" in2="BackgroundImageFix" result="shape"/>
			<feGaussianBlur stdDeviation="5.33333" result="effect_layerBlur_1"/>
		</filter>
		<filter id="filter_294_2940_dd" x="138.118164" y="305.715820" width="96.589844" height="81.091797" filterUnits="userSpaceOnUse" color-interpolation-filters="sRGB">
			<feFlood flood-opacity="0" result="BackgroundImageFix"/>
			<feBlend mode="normal" in="SourceGraphic" in2="BackgroundImageFix" result="shape"/>
			<feGaussianBlur stdDeviation="5.33333" result="effect_layerBlur_1"/>
		</filter>
		<filter id="filter_294_2941_dd" x="171.551758" y="147.763428" width="71.974609" height="102.594727" filterUnits="userSpaceOnUse" color-interpolation-filters="sRGB">
			<feFlood flood-opacity="0" result="BackgroundImageFix"/>
			<feBlend mode="normal" in="SourceGraphic" in2="BackgroundImageFix" result="shape"/>
			<feGaussianBlur stdDeviation="5.33333" result="effect_layerBlur_1"/>
		</filter>
		<filter id="filter_294_2942_dd" x="275.010742" y="437.017334" width="79.057617" height="98.087402" filterUnits="userSpaceOnUse" color-interpolation-filters="sRGB">
			<feFlood flood-opacity="0" result="BackgroundImageFix"/>
			<feBlend mode="normal" in="SourceGraphic" in2="BackgroundImageFix" result="shape"/>
			<feGaussianBlur stdDeviation="5.33333" result="effect_layerBlur_1"/>
		</filter>
	</defs>
	<g filter="url(#filter_177_1911_dd)">
		<circle id="Ellipse 23" cx="32.000000" cy="203.000000" r="9.000000" fill="#FF7A00" fill-opacity="0.720000"/>
	</g>
	<g filter="url(#filter_294_2944_dd)">
		<circle id="Ellipse 41" cx="768.000000" cy="334.000000" r="9.000000" fill="#FF7A00" fill-opacity="0.720000"/>
	</g>
	<circle id="Ellipse 24" cx="233.000000" cy="9.000000" r="9.000000" fill="#4ABCEC" fill-opacity="0.400000"/>
	<circle id="Ellipse 29" cx="94.000000" cy="404.000000" r="9.000000" fill="#00E0FF" fill-opacity="0.200000"/>
	<g filter="url(#filter_177_1914_dd)">
		<path id="Ellipse 25" d="M266 430C266 434.97 261.97 439 257 439C252.02 439 248 434.97 248 430C248 425.03 252.02 421 257 421C261.97 421 266 425.03 266 430Z" fill="#00E0FF" fill-opacity="1.000000" fill-rule="nonzero"/>
	</g>
	<g filter="url(#filter_177_1915_dd)">
		<path id="Ellipse 26" d="M188 264.5C188 268.09 185.09 271 181.5 271C177.91 271 175 268.09 175 264.5C175 260.91 177.91 258 181.5 258C185.09 258 188 260.91 188 264.5Z" fill="#EBFF00" fill-opacity="0.770000" fill-rule="nonzero"/>
	</g>
	<g filter="url(#filter_294_2943_dd)">
		<path id="Ellipse 40" d="M482 208.5C482 212.09 479.09 215 475.5 215C471.91 215 469 212.09 469 208.5C469 204.91 471.91 202 475.5 202C479.09 202 482 204.91 482 208.5Z" fill="#EBFF00" fill-opacity="0.560000" fill-rule="nonzero"/>
	</g>
	<g filter="url(#filter_294_2935_dd)">
		<path id="Ellipse 32" d="M413 398C413 402.97 408.97 407 404 407C399.02 407 395 402.97 395 398C395 393.03 399.02 389 404 389C408.97 389 413 393.03 413 398Z" fill="#FFA800" fill-opacity="1.000000" fill-rule="nonzero"/>
	</g>
	<g filter="url(#filter_294_2936_dd)">
		<path id="Ellipse 33" d="M582 326C582 333.73 575.73 340 568 340C560.26 340 554 333.73 554 326C554 318.26 560.26 312 568 312C575.73 312 582 318.26 582 326Z" fill="#FFA800" fill-opacity="0.450000" fill-rule="nonzero"/>
	</g>
	<g filter="url(#filter_294_2937_dd)">
		<path id="Ellipse 34" d="M90 426.5C90 433.95 83.95 440 76.5 440C69.04 440 63 433.95 63 426.5C63 419.04 69.04 413 76.5 413C83.95 413 90 419.04 90 426.5Z" fill="#FFA800" fill-opacity="0.550000" fill-rule="nonzero"/>
	</g>
	<g filter="url(#filter_294_2938_dd)">
		<path id="Ellipse 35" d="M315 136C315 140.97 310.97 145 306 145C301.02 145 297 140.97 297 136C297 131.03 301.02 127 306 127C310.97 127 315 131.03 315 136Z" fill="#FFA800" fill-opacity="1.000000" fill-rule="nonzero"/>
	</g>
	<g filter="url(#filter_177_1916_dd)">
		<path id="Ellipse 30" d="M429 224C429 228.97 424.97 233 420 233C415.02 233 411 228.97 411 224C411 219.03 415.02 215 420 215C424.97 215 429 219.03 429 224Z" fill="#00E0FF" fill-opacity="1.000000" fill-rule="nonzero"/>
	</g>
	<g filter="url(#filter_177_1917_dd)">
		<path id="Ellipse 31" d="M661 390C661 394.97 656.97 399 652 399C647.02 399 643 394.97 643 390C643 385.03 647.02 381 652 381C656.97 381 661 385.03 661 390Z" fill="#00E0FF" fill-opacity="0.830000" fill-rule="nonzero"/>
	</g>
	<g filter="url(#filter_177_1918_dd)">
		<circle id="Ellipse 27" cx="103.000000" cy="533.000000" r="9.000000" fill="#00E0FF" fill-opacity="0.830000"/>
	</g>
	<g filter="url(#filter_177_1919_dd)">
		<circle id="Ellipse 28" cx="496.000000" cy="104.000000" r="9.000000" fill="#FFA800" fill-opacity="0.380000"/>
	</g>
	<g filter="url(#filter_294_2939_dd)">
		<ellipse id="Ellipse 36" rx="53.000000" ry="6.000000" transform="matrix(0.79384 -0.608127 0.608127 0.79384 461.765 293.964)" fill="#D3B273" fill-opacity="0.680000"/>
	</g>
	<g filter="url(#filter_294_2940_dd)">
		<ellipse id="Ellipse 37" rx="40.113258" ry="6.000000" transform="matrix(0.800015 0.59998 -0.59998 0.800015 186.413 346.262)" fill="#D3B273" fill-opacity="0.680000"/>
	</g>
	<g filter="url(#filter_294_2941_dd)">
		<ellipse id="Ellipse 38" rx="40.113258" ry="6.000000" transform="matrix(-0.480575 0.876954 -0.876954 -0.480575 207.539 199.061)" fill="#D3B273" fill-opacity="0.680000"/>
	</g>
	<g filter="url(#filter_294_2942_dd)">
		<ellipse id="Ellipse 39" rx="40.113258" ry="6.000000" transform="matrix(-0.573488 0.819214 -0.819214 -0.573488 314.539 486.061)" fill="#D3B273" fill-opacity="0.680000"/>
	</g>
</svg>
