<svg width="9.000000" height="9.000000" viewBox="0 0 9 9" fill="none" xmlns="http://www.w3.org/2000/svg" xmlns:xlink="http://www.w3.org/1999/xlink">
	<desc>
			Created with Pixso.
	</desc>
	<defs>
		<clipPath id="clip177_2172">
			<rect id="icons8_calendar 1" rx="0.000000" width="8.000000" height="8.000000" transform="translate(0.500000 0.500000)" fill="white" fill-opacity="0"/>
		</clipPath>
	</defs>
	<rect id="icons8_calendar 1" rx="0.000000" width="8.000000" height="8.000000" transform="translate(0.500000 0.500000)" fill="#FFFFFF" fill-opacity="0"/>
	<g clip-path="url(#clip177_2172)">
		<path id="Vector" d="M1.87 0L1.87 1.5L2.62 1.5L2.62 0L1.87 0ZM6.37 0L6.37 1.5L7.12 1.5L7.12 0L6.37 0ZM0.37 1.12C0.16 1.12 0 1.29 0 1.5L0 2.62C0 2.83 0.16 3 0.37 3L0.37 9L8.62 9L8.62 3C8.83 3 9 2.83 9 2.62L9 1.5C9 1.29 8.83 1.12 8.62 1.12L7.5 1.12L7.5 1.87L6 1.87L6 1.12L3 1.12L3 1.87L1.5 1.87L1.5 1.12L0.37 1.12ZM1.12 3L7.87 3L7.87 8.25L1.12 8.25L1.12 3ZM1.87 3.75L1.87 4.5L2.62 4.5L2.62 3.75L1.87 3.75ZM3.37 3.75L3.37 4.5L4.12 4.5L4.12 3.75L3.37 3.75ZM4.87 3.75L4.87 4.5L5.62 4.5L5.62 3.75L4.87 3.75ZM6.37 3.75L6.37 4.5L7.12 4.5L7.12 3.75L6.37 3.75ZM1.87 5.25L1.87 6L2.62 6L2.62 5.25L1.87 5.25ZM3.37 5.25L3.37 6L4.12 6L4.12 5.25L3.37 5.25ZM4.87 5.25L4.87 6L5.62 6L5.62 5.25L4.87 5.25ZM6.37 5.25L6.37 6L7.12 6L7.12 5.25L6.37 5.25ZM1.87 6.75L1.87 7.5L2.62 7.5L2.62 6.75L1.87 6.75ZM3.37 6.75L3.37 7.5L4.12 7.5L4.12 6.75L3.37 6.75ZM4.87 6.75L4.87 7.5L5.62 7.5L5.62 6.75L4.87 6.75ZM6.37 6.75L6.37 7.5L7.12 7.5L7.12 6.75L6.37 6.75Z" fill="#FFFFFF" fill-opacity="1.000000" fill-rule="nonzero"/>
	</g>
</svg>
