<svg width="31.679688" height="20.459961" viewBox="0 0 31.6797 20.46" fill="none" xmlns="http://www.w3.org/2000/svg" xmlns:xlink="http://www.w3.org/1999/xlink">
	<desc>
			Created with Pixso.
	</desc>
	<defs>
		<linearGradient x1="35.741550" y1="0.000004" x2="0.000101" y2="20.469183" id="paint_linear_177_1854_0" gradientUnits="userSpaceOnUse">
			<stop offset="0.250000" stop-color="#3B768F"/>
			<stop offset="0.536458" stop-color="#3EC6FF"/>
			<stop offset="0.817708" stop-color="#3B768F"/>
		</linearGradient>
	</defs>
	<path id="Vector" d="M10.23 0C4.58 0 0 4.58 0 10.22C0 15.87 4.58 20.45 10.23 20.45C15.87 20.45 20.45 15.87 20.45 10.22C20.45 4.58 15.87 0 10.23 0ZM15.83 5.93C16 5.93 16.17 6 16.3 6.13C16.56 6.39 16.56 6.8 16.3 7.06L8.38 14.98C8.25 15.11 8.08 15.18 7.91 15.18C7.75 15.18 7.58 15.11 7.45 14.98L4.15 11.68C3.89 11.42 3.89 11.01 4.15 10.75C4.41 10.49 4.82 10.49 5.08 10.75L7.91 13.58L15.37 6.13C15.5 6 15.67 5.93 15.83 5.93ZM23.75 9.9C23.58 9.9 23.41 9.96 23.29 10.09C23.16 10.21 23.09 10.38 23.09 10.56C23.09 10.73 23.16 10.9 23.29 11.02C23.41 11.15 23.58 11.22 23.75 11.22L31.67 11.22L31.67 9.9L23.75 9.9Z" fill="url(#paint_linear_177_1854_0)" fill-opacity="1.000000" fill-rule="nonzero"/>
</svg>
