<svg width="22.008789" height="22.011536" viewBox="0 0 22.0088 22.0115" fill="none" xmlns="http://www.w3.org/2000/svg" xmlns:xlink="http://www.w3.org/1999/xlink">
	<desc>
			Created with Pixso.
	</desc>
	<defs>
		<linearGradient x1="11.004428" y1="0.000000" x2="11.004428" y2="22.011555" id="paint_linear_177_1727_0" gradientUnits="userSpaceOnUse">
			<stop stop-color="#4ABCEC"/>
			<stop offset="1.000000" stop-color="#4A8BEC"/>
		</linearGradient>
	</defs>
	<path id="Vector" d="M4.42 0C4.03 -0.03 3.6 0.08 3.21 0.36C2.86 0.6 2.11 1.2 1.41 1.87C1.06 2.21 0.73 2.55 0.47 2.9C0.21 3.24 -0.02 3.56 0 4.01C0.01 4.42 0.05 5.64 0.92 7.5C1.8 9.35 3.49 11.9 6.79 15.21C10.1 18.51 12.65 20.21 14.5 21.08C16.36 21.95 17.58 21.99 17.99 22.01C18.44 22.02 18.76 21.79 19.1 21.53C19.44 21.27 19.79 20.94 20.13 20.59C20.8 19.89 21.4 19.14 21.64 18.79C22.19 18.01 22.1 17.08 21.48 16.64C21.1 16.37 17.54 14.01 17.01 13.68C16.46 13.35 15.84 13.5 15.28 13.79C14.84 14.02 13.65 14.71 13.31 14.9C13.05 14.74 12.08 14.09 10 12C7.91 9.92 7.26 8.95 7.1 8.69C7.29 8.35 7.97 7.17 8.21 6.72C8.5 6.16 8.67 5.53 8.32 4.98C8.17 4.75 7.5 3.74 6.83 2.72C6.16 1.7 5.52 0.74 5.35 0.51L5.35 0.51C5.14 0.21 4.8 0.03 4.42 0ZM4.32 1.02C4.46 1.04 4.54 1.09 4.54 1.09C4.62 1.21 5.32 2.26 6 3.27C6.67 4.29 7.35 5.33 7.47 5.52C7.49 5.55 7.52 5.88 7.32 6.25L7.32 6.25C7.1 6.67 6.07 8.47 6.07 8.47L5.93 8.72L6.08 8.97C6.08 8.97 6.85 10.27 9.29 12.71C11.73 15.15 13.03 15.92 13.03 15.92L13.28 16.07L13.53 15.93C13.53 15.93 15.32 14.9 15.75 14.68C16.12 14.48 16.45 14.51 16.49 14.53C16.83 14.74 20.67 17.3 20.91 17.46C20.92 17.47 21.13 17.79 20.82 18.22L20.82 18.22C20.64 18.48 20.04 19.25 19.41 19.9C19.09 20.22 18.77 20.53 18.5 20.73C18.22 20.94 17.98 21 18.02 21.01C17.59 20.99 16.65 20.98 14.93 20.17C13.21 19.36 10.74 17.74 7.5 14.5C4.26 11.26 2.64 8.8 1.83 7.07C1.02 5.34 1.01 4.4 1 3.98C1 4.02 1.06 3.77 1.27 3.5C1.47 3.23 1.78 2.9 2.1 2.59C2.76 1.96 3.52 1.36 3.78 1.18L3.78 1.18C4 1.03 4.19 1.01 4.32 1.02Z" fill="url(#paint_linear_177_1727_0)" fill-opacity="1.000000" fill-rule="nonzero"/>
</svg>
