<svg width="30.000000" height="30.000000" viewBox="0 0 30 30" fill="none" xmlns="http://www.w3.org/2000/svg" xmlns:xlink="http://www.w3.org/1999/xlink">
	<desc>
			Created with Pixso.
	</desc>
	<defs>
		<clipPath id="clip436_132">
			<rect id="icons8_whatsapp_1 1" rx="0.000000" width="29.000000" height="29.000000" transform="translate(0.500000 0.500000)" fill="white" fill-opacity="0"/>
		</clipPath>
	</defs>
	<rect id="icons8_whatsapp_1 1" rx="0.000000" width="29.000000" height="29.000000" transform="translate(0.500000 0.500000)" fill="#FFFFFF" fill-opacity="0"/>
	<g clip-path="url(#clip436_132)">
		<path id="Vector" d="M15 3C8.37 3 3 8.37 3 15C3 17.25 3.63 19.35 4.71 21.15L3.1 27L9.08 25.43C10.82 26.42 12.84 27 15 27C21.62 27 27 21.62 27 15C27 8.37 21.62 3 15 3ZM10.89 9.4C11.08 9.4 11.28 9.4 11.46 9.41C11.67 9.41 11.9 9.43 12.13 9.92C12.39 10.5 12.97 11.97 13.04 12.12C13.12 12.27 13.17 12.45 13.07 12.64C12.97 12.84 12.92 12.96 12.77 13.14C12.62 13.31 12.46 13.53 12.33 13.66C12.18 13.81 12.02 13.97 12.19 14.27C12.37 14.56 12.96 15.54 13.85 16.32C14.98 17.34 15.94 17.65 16.24 17.8C16.54 17.95 16.71 17.92 16.88 17.72C17.06 17.53 17.62 16.86 17.82 16.56C18.02 16.26 18.22 16.32 18.49 16.41C18.76 16.51 20.22 17.23 20.52 17.38C20.82 17.53 21.01 17.6 21.09 17.72C21.17 17.85 21.17 18.44 20.92 19.14C20.67 19.83 19.46 20.5 18.91 20.55C18.37 20.6 17.85 20.79 15.35 19.81C12.32 18.62 10.42 15.52 10.27 15.32C10.12 15.12 9.06 13.71 9.06 12.25C9.06 10.78 9.82 10.07 10.09 9.77C10.37 9.47 10.69 9.4 10.89 9.4Z" fill="#FFFFFF" fill-opacity="1.000000" fill-rule="nonzero"/>
	</g>
</svg>
