<svg width="21.875977" height="25.813477" viewBox="0 0 21.876 25.8135" fill="none" xmlns="http://www.w3.org/2000/svg" xmlns:xlink="http://www.w3.org/1999/xlink">
	<desc>
			Created with Pixso.
	</desc>
	<defs>
		<linearGradient x1="24.680498" y1="0.000006" x2="0.000078" y2="25.825239" id="paint_linear_177_2245_0" gradientUnits="userSpaceOnUse">
			<stop offset="0.250000" stop-color="#3B768F"/>
			<stop offset="0.536458" stop-color="#3EC6FF"/>
			<stop offset="0.817708" stop-color="#3B768F"/>
		</linearGradient>
	</defs>
	<path id="Vector" d="M4.25 0L6.03 5.84L6.03 9.65L7.53 9.65L7.53 5.65L9.25 0L7.75 0L6.81 3.84L6.71 3.84L5.75 0L4.25 0ZM11.15 2.34C10.55 2.34 10.07 2.51 9.71 2.84C9.36 3.16 9.18 3.6 9.18 4.15L9.18 7.84C9.18 8.44 9.37 8.95 9.71 9.31C10.07 9.67 10.51 9.84 11.09 9.84C11.69 9.84 12.18 9.66 12.53 9.31C12.87 8.96 13.03 8.48 13.03 7.87L13.03 4.18C13.03 3.64 12.85 3.21 12.5 2.87C12.15 2.52 11.7 2.34 11.15 2.34ZM14.15 2.53L14.15 8.5C14.15 8.92 14.25 9.22 14.4 9.43C14.56 9.64 14.78 9.75 15.09 9.75C15.33 9.75 15.58 9.67 15.84 9.53C16.1 9.37 16.38 9.16 16.62 8.87L16.62 9.65L17.93 9.65L17.93 2.53L16.62 2.53L16.62 7.93C16.5 8.08 16.36 8.21 16.21 8.31C16.07 8.41 15.94 8.46 15.84 8.46C15.72 8.46 15.61 8.44 15.56 8.37C15.5 8.3 15.5 8.16 15.5 8L15.5 2.53L14.15 2.53ZM11.09 3.59C11.26 3.59 11.42 3.62 11.53 3.71C11.64 3.81 11.68 3.94 11.68 4.09L11.68 8C11.68 8.19 11.63 8.33 11.53 8.43C11.42 8.54 11.27 8.59 11.09 8.59C10.91 8.59 10.78 8.54 10.68 8.43C10.58 8.33 10.56 8.19 10.56 8L10.56 4.09C10.56 3.94 10.61 3.81 10.71 3.71C10.82 3.62 10.93 3.59 11.09 3.59ZM10.93 11.12C8.34 11.12 5.8 11.14 3.31 11.25C1.57 11.25 0.15 12.65 0.15 14.37C0.05 15.73 -0.01 17.1 0 18.46C-0.01 19.83 0.05 21.19 0.15 22.56C0.15 24.28 1.57 25.68 3.31 25.68C5.8 25.78 8.34 25.81 10.93 25.81C13.53 25.82 16.07 25.78 18.56 25.68C20.3 25.68 21.71 24.28 21.71 22.56C21.82 21.19 21.87 19.83 21.87 18.46C21.88 17.1 21.82 15.73 21.71 14.37C21.71 12.65 20.3 11.25 18.56 11.25C16.07 11.14 13.53 11.12 10.93 11.12ZM1.68 13.34L6.28 13.34C6.36 13.34 6.43 13.41 6.43 13.5L6.43 14.9C6.43 14.98 6.36 15.06 6.28 15.06L4.87 15.06L4.87 23.15C4.87 23.23 4.83 23.31 4.75 23.31L3.25 23.31C3.16 23.31 3.09 23.23 3.09 23.15L3.09 15.06L1.68 15.06C1.6 15.06 1.56 14.98 1.56 14.9L1.56 13.5C1.56 13.41 1.6 13.34 1.68 13.34ZM11.34 13.34L12.68 13.34C12.76 13.34 12.84 13.41 12.84 13.5L12.84 16.21C12.95 16.11 13.07 16.03 13.18 15.96C13.41 15.84 13.64 15.78 13.87 15.78C14.34 15.78 14.68 15.96 14.93 16.31C15.17 16.64 15.31 17.1 15.31 17.71L15.31 21.68C15.31 22.22 15.19 22.64 14.96 22.93C14.73 23.24 14.37 23.4 13.93 23.4C13.66 23.4 13.41 23.33 13.18 23.21C13.06 23.15 12.95 23.09 12.84 23L12.84 23.15C12.84 23.23 12.76 23.31 12.68 23.31L11.34 23.31C11.26 23.31 11.18 23.23 11.18 23.15L11.18 13.5C11.18 13.41 11.26 13.34 11.34 13.34ZM18.15 15.68C18.8 15.68 19.33 15.89 19.68 16.28C20.03 16.67 20.21 17.22 20.21 17.93L20.21 19.78C20.21 19.86 20.14 19.9 20.06 19.9L17.68 19.9L17.68 21.12C17.68 21.56 17.73 21.73 17.78 21.81C17.82 21.87 17.88 21.96 18.09 21.96C18.26 21.96 18.37 21.92 18.43 21.84C18.46 21.8 18.53 21.64 18.53 21.12L18.53 20.62C18.53 20.54 18.6 20.46 18.68 20.46L20.06 20.46C20.14 20.46 20.21 20.54 20.21 20.62L20.21 21.15C20.21 21.92 20.01 22.51 19.65 22.9C19.3 23.3 18.76 23.5 18.06 23.5C17.42 23.5 16.92 23.3 16.56 22.87C16.19 22.45 16 21.87 16 21.15L16 17.93C16 17.28 16.19 16.76 16.59 16.34C16.99 15.92 17.52 15.68 18.15 15.68ZM6.28 15.87L7.59 15.87C7.67 15.87 7.75 15.94 7.75 16.03L7.75 21.5C7.75 21.67 7.76 21.75 7.78 21.78C7.78 21.79 7.82 21.84 7.93 21.84C7.97 21.84 8.06 21.82 8.21 21.71C8.34 21.63 8.46 21.52 8.56 21.4L8.56 16.03C8.56 15.94 8.63 15.87 8.71 15.87L10.06 15.87C10.14 15.87 10.18 15.94 10.18 16.03L10.18 23.15C10.18 23.23 10.14 23.31 10.06 23.31L8.71 23.31C8.63 23.31 8.56 23.23 8.56 23.15L8.56 22.75C8.38 22.92 8.21 23.05 8.03 23.15C7.74 23.32 7.46 23.4 7.18 23.4C6.83 23.4 6.55 23.28 6.37 23.03C6.19 22.79 6.12 22.45 6.12 22L6.12 16.03C6.12 15.94 6.19 15.87 6.28 15.87ZM13.18 17.21C13.13 17.22 13.08 17.25 13.03 17.28C12.96 17.31 12.9 17.37 12.84 17.43L12.84 21.75C12.92 21.83 12.98 21.9 13.06 21.93C13.14 21.97 13.22 22 13.31 22C13.48 22 13.54 21.92 13.56 21.9C13.6 21.85 13.62 21.73 13.62 21.5L13.62 17.81C13.62 17.6 13.6 17.44 13.53 17.34C13.45 17.24 13.33 17.19 13.18 17.21ZM18.12 17.25C17.96 17.25 17.84 17.28 17.78 17.37C17.73 17.44 17.68 17.6 17.68 17.93L17.68 18.5L18.53 18.5L18.53 17.93C18.53 17.6 18.48 17.44 18.43 17.37C18.37 17.28 18.27 17.25 18.12 17.25Z" fill="url(#paint_linear_177_2245_0)" fill-opacity="1.000000" fill-rule="nonzero"/>
</svg>
