<svg width="44.000000" height="44.000000" viewBox="0 0 44 44" fill="none" xmlns="http://www.w3.org/2000/svg" xmlns:xlink="http://www.w3.org/1999/xlink">
	<desc>
			Created with Pixso.
	</desc>
	<defs>
		<linearGradient x1="49.641037" y1="0.000019" x2="0.000134" y2="44.019779" id="paint_linear_177_1787_0" gradientUnits="userSpaceOnUse">
			<stop offset="0.250000" stop-color="#3B768F"/>
			<stop offset="0.536458" stop-color="#3EC6FF"/>
			<stop offset="0.817708" stop-color="#3B768F"/>
		</linearGradient>
	</defs>
	<path id="Vector" d="M3 0C1.34 0 0 1.34 0 3L0 13C0 14.65 1.34 16 3 16L6 16L6 18C5.99 18.13 6.02 18.26 6.07 18.38C6.12 18.51 6.19 18.62 6.28 18.71C6.38 18.81 6.49 18.88 6.61 18.93C6.73 18.98 6.86 19.01 7 19.01C7.13 19.01 7.26 18.98 7.38 18.93C7.5 18.88 7.61 18.81 7.71 18.71C7.8 18.62 7.87 18.51 7.92 18.38C7.97 18.26 8 18.13 8 18L8 16L13 16C14.65 16 16 14.65 16 13L16 9L21 9C21.13 9 21.26 8.97 21.38 8.92C21.5 8.87 21.62 8.8 21.71 8.71C21.81 8.61 21.88 8.5 21.93 8.38C21.98 8.26 22.01 8.13 22.01 8C22.01 7.86 21.98 7.73 21.93 7.61C21.88 7.49 21.81 7.38 21.71 7.28C21.62 7.19 21.5 7.12 21.38 7.07C21.26 7.02 21.13 6.99 21 7L16 7L16 3C16 1.34 14.65 0 13 0L3 0ZM31 0C29.34 0 28 1.34 28 3L28 7L25 7C24.86 6.99 24.73 7.02 24.61 7.07C24.49 7.12 24.37 7.19 24.28 7.28C24.18 7.38 24.11 7.49 24.06 7.61C24.01 7.73 23.98 7.86 23.98 8C23.98 8.13 24.01 8.26 24.06 8.38C24.11 8.5 24.18 8.61 24.28 8.71C24.37 8.8 24.49 8.87 24.61 8.92C24.73 8.97 24.86 9 25 9L28 9L28 13C28 14.65 29.34 16 31 16L35 16L35 21C34.99 21.13 35.02 21.26 35.07 21.38C35.12 21.51 35.19 21.62 35.28 21.71C35.38 21.81 35.49 21.88 35.61 21.93C35.73 21.98 35.86 22.01 36 22.01C36.13 22.01 36.26 21.98 36.38 21.93C36.5 21.88 36.61 21.81 36.71 21.71C36.8 21.62 36.87 21.51 36.92 21.38C36.97 21.26 37 21.13 37 21L37 16L41 16C42.65 16 44 14.65 44 13L44 3C44 1.34 42.65 0 41 0L31 0ZM6.98 20.98C6.71 20.99 6.46 21.09 6.28 21.28C6.09 21.47 5.99 21.73 6 22L6 28L3 28C1.34 28 0 29.34 0 31L0 41C0 42.65 1.34 44 3 44L13 44C14.65 44 16 42.65 16 41L16 37L19 37C19.13 37 19.26 36.97 19.38 36.92C19.5 36.87 19.62 36.8 19.71 36.71C19.81 36.61 19.88 36.5 19.93 36.38C19.98 36.26 20.01 36.13 20.01 36C20.01 35.86 19.98 35.73 19.93 35.61C19.88 35.49 19.81 35.38 19.71 35.28C19.62 35.19 19.5 35.12 19.38 35.07C19.26 35.02 19.13 34.99 19 35L16 35L16 31C16 29.34 14.65 28 13 28L8 28L8 22C8 21.86 7.97 21.73 7.92 21.6C7.87 21.48 7.8 21.37 7.7 21.27C7.61 21.18 7.49 21.1 7.37 21.05C7.25 21 7.11 20.98 6.98 20.98ZM35.98 23.98C35.71 23.99 35.46 24.09 35.28 24.28C35.09 24.47 34.99 24.73 35 25L35 27L31 27C29.34 27 28 28.34 28 30L28 35L23 35C22.86 34.99 22.73 35.02 22.61 35.07C22.49 35.12 22.37 35.19 22.28 35.28C22.18 35.38 22.11 35.49 22.06 35.61C22.01 35.73 21.98 35.86 21.98 36C21.98 36.13 22.01 36.26 22.06 36.38C22.11 36.5 22.18 36.61 22.28 36.71C22.37 36.8 22.49 36.87 22.61 36.92C22.73 36.97 22.86 37 23 37L28 37L28 40C28 41.65 29.34 43 31 43L41 43C42.65 43 44 41.65 44 40L44 30C44 28.34 42.65 27 41 27L37 27L37 25C37 24.86 36.97 24.73 36.92 24.6C36.87 24.48 36.8 24.37 36.7 24.27C36.61 24.18 36.49 24.1 36.37 24.05C36.25 24 36.11 23.98 35.98 23.98Z" fill="url(#paint_linear_177_1787_0)" fill-opacity="1.000000" fill-rule="nonzero"/>
</svg>
