<svg width="50.000000" height="49.644531" viewBox="0 0 50 49.6445" fill="none" xmlns="http://www.w3.org/2000/svg" xmlns:xlink="http://www.w3.org/1999/xlink">
	<desc>
			Created with Pixso.
	</desc>
	<defs>
		<linearGradient x1="56.410259" y1="-0.000008" x2="0.000175" y2="49.666836" id="paint_linear_177_1811_0" gradientUnits="userSpaceOnUse">
			<stop offset="0.250000" stop-color="#3B768F"/>
			<stop offset="0.536458" stop-color="#3EC6FF"/>
			<stop offset="0.817708" stop-color="#3B768F"/>
		</linearGradient>
	</defs>
	<path id="Vector" d="M49.99 27.92C49.78 24.36 47.39 23.23 45.64 22.41C44.73 21.97 43.94 21.6 43.66 21.02C43.62 20.46 43.62 20.01 43.62 19.49L43.62 19.41C44.12 18.83 44.55 17.88 44.75 17.02C45.19 16.72 45.65 16.12 45.8 14.91C45.87 14.3 45.73 13.8 45.5 13.43C45.84 12.17 46.39 9.44 45.24 7.6C44.74 6.8 43.97 6.26 43 6.03C42.38 5.35 41.31 4.98 39.93 4.98L39.92 4.98C37.78 5.02 36.2 5.69 35.22 6.98C34.11 8.44 33.87 10.6 34.51 13.4C34.27 13.77 34.12 14.28 34.19 14.91C34.34 16.12 34.81 16.73 35.25 17.03C35.46 17.88 35.89 18.83 36.4 19.42L36.4 19.5C36.4 20.01 36.41 20.46 36.36 21.02C36.23 21.27 35.94 21.49 35.55 21.71C34.61 19.16 32.42 18.15 30.77 17.39C29.79 16.94 28.94 16.55 28.66 16.02C28.62 15.46 28.62 15.01 28.62 14.5L28.63 14.41C29.12 13.83 29.55 12.89 29.75 12.02C30.19 11.72 30.65 11.12 30.8 9.91C30.87 9.3 30.73 8.8 30.5 8.43C30.84 7.17 31.39 4.44 30.25 2.61C29.74 1.8 28.97 1.26 28 1.03C27.51 0.49 26.61 0 24.93 0C22.78 0.04 21.19 0.71 20.22 1.99C19.11 3.45 18.88 5.6 19.51 8.4C19.28 8.77 19.12 9.28 19.2 9.91C19.34 11.12 19.81 11.73 20.25 12.03C20.46 12.88 20.89 13.83 21.4 14.42L21.4 14.5C21.4 15.01 21.41 15.46 21.36 16.02C21.08 16.55 20.23 16.94 19.25 17.39C17.58 18.15 15.39 19.16 14.45 21.71C14.05 21.49 13.76 21.27 13.63 21.02C13.59 20.46 13.59 20 13.6 19.48L13.6 19.42C14.1 18.83 14.54 17.88 14.74 17.03C15.18 16.72 15.65 16.12 15.8 14.91C15.87 14.28 15.72 13.77 15.48 13.39C16.12 10.6 15.88 8.44 14.77 6.98C13.79 5.69 12.21 5.02 10.05 4.98C8.67 4.98 7.61 5.35 6.99 6.03C6.02 6.26 5.25 6.8 4.75 7.61C3.6 9.44 4.15 12.17 4.49 13.43C4.26 13.8 4.12 14.3 4.19 14.91C4.34 16.12 4.8 16.72 5.25 17.03C5.44 17.89 5.87 18.83 6.37 19.41L6.37 19.5C6.37 20.01 6.37 20.46 6.33 21.03C6.05 21.6 5.25 21.98 4.35 22.41C2.6 23.23 0.21 24.36 0 27.98L0 38.98C0 39.05 0 39.11 0.01 39.18C0.07 39.47 1.54 46 11.52 49.27C11.52 49.27 11.68 49.41 12.98 49.57C12.97 49.12 12.97 48.39 13.01 47.66C13.39 44.01 16.33 42.82 18.49 41.94C19.67 41.46 20.78 41.01 21.12 40.36C21.17 39.75 21.16 39.25 21.16 38.68L21.16 38.57C20.6 37.94 20.12 36.88 19.9 35.94C19.43 35.63 18.92 35 18.76 33.68C18.68 33.01 18.85 32.46 19.11 32.07C18.41 29.03 18.66 26.69 19.86 25.12C20.91 23.74 22.6 23.02 24.91 22.98C26.41 22.98 27.55 23.37 28.2 24.11C29.25 24.35 30.08 24.93 30.62 25.79C31.85 27.78 31.25 30.76 30.87 32.1C31.12 32.49 31.28 33.03 31.21 33.69C31.05 35 30.54 35.63 30.07 35.94C29.85 36.88 29.39 37.93 28.84 38.56L28.84 38.68C28.83 39.25 28.83 39.74 28.88 40.36C29.21 41.01 30.32 41.47 31.5 41.94C33.66 42.82 36.61 44.02 36.96 47.66C37.01 48.19 37 49.2 36.99 49.64C37.93 49.53 37.99 49.44 37.99 49.44C48.42 46.22 49.91 39.48 49.98 39.18C49.99 39.11 50 39.05 50 38.98L49.99 27.92Z" fill="url(#paint_linear_177_1811_0)" fill-opacity="1.000000" fill-rule="nonzero"/>
</svg>
