<svg width="42.000000" height="42.000000" viewBox="0 0 42 42" fill="none" xmlns="http://www.w3.org/2000/svg" xmlns:xlink="http://www.w3.org/1999/xlink">
	<desc>
			Created with Pixso.
	</desc>
	<defs>
		<linearGradient x1="47.384617" y1="0.000000" x2="0.000149" y2="42.018887" id="paint_linear_177_1793_0" gradientUnits="userSpaceOnUse">
			<stop offset="0.250000" stop-color="#3B768F"/>
			<stop offset="0.536458" stop-color="#3EC6FF"/>
			<stop offset="0.817708" stop-color="#3B768F"/>
		</linearGradient>
	</defs>
	<path id="Vector" d="M1 0C0.45 0 0 0.45 0 1L0 11C0 11.55 0.45 12 1 12L41 12C41.54 12 42 11.55 42 11L42 1C42 0.45 41.54 0 41 0L1 0ZM6 5C6.54 5 7 5.45 7 6C7 6.54 6.54 7 6 7C5.45 7 5 6.54 5 6C5 5.45 5.45 5 6 5ZM10 5C10.54 5 11 5.45 11 6C11 6.54 10.54 7 10 7C9.45 7 9 6.54 9 6C9 5.45 9.45 5 10 5ZM14 5C14.54 5 15 5.45 15 6C15 6.54 14.54 7 14 7C13.45 7 13 6.54 13 6C13 5.45 13.45 5 14 5ZM0 15L0 41C0 41.26 0.1 41.51 0.29 41.7C0.48 41.89 0.73 42 1 42L41 42C41.26 42 41.51 41.89 41.7 41.7C41.89 41.51 42 41.26 42 41L42 15L40 15L40 40L2 40L2 15L0 15ZM6 15C5.44 15 5 15.44 5 16L5 36C5 36.55 5.44 37 6 37L19 37C19.55 37 20 36.55 20 36L20 16C20 15.44 19.55 15 19 15L6 15ZM23 15L23 17L37 17L37 15L23 15ZM23 20L23 22L37 22L37 20L23 20ZM23 25L23 27L37 27L37 25L23 25ZM23 30L23 32L37 32L37 30L23 30ZM23 35L23 37L37 37L37 35L23 35Z" fill="url(#paint_linear_177_1793_0)" fill-opacity="1.000000" fill-rule="nonzero"/>
</svg>
