<svg width="30.000000" height="196.000000" viewBox="0 0 30 196" fill="none" xmlns="http://www.w3.org/2000/svg" xmlns:xlink="http://www.w3.org/1999/xlink">
	<desc>
			Created with Pixso.
	</desc>
	<defs>
		<filter id="filter_177_1732_dd" x="0.000000" y="159.000000" width="30.000000" height="30.000000" filterUnits="userSpaceOnUse" color-interpolation-filters="sRGB">
			<feFlood flood-opacity="0" result="BackgroundImageFix"/>
			<feColorMatrix in="SourceAlpha" type="matrix" values="0 0 0 0 0 0 0 0 0 0 0 0 0 0 0 0 0 0 127 0" result="hardAlpha"/>
			<feOffset dx="0" dy="4"/>
			<feGaussianBlur stdDeviation="3.33333"/>
			<feComposite in2="hardAlpha" operator="out" k2="-1" k3="1"/>
			<feColorMatrix type="matrix" values="0 0 0 0 0.2902 0 0 0 0 0.85098 0 0 0 0 0.92549 0 0 0 0.75 0"/>
			<feBlend mode="normal" in2="BackgroundImageFix" result="effect_dropShadow_1"/>
			<feBlend mode="normal" in="SourceGraphic" in2="effect_dropShadow_1" result="shape"/>
		</filter>
	</defs>
	<path id="Листайте вниз" d="M9.57 71.83C9.82 71.54 9.94 71.18 9.94 70.74C9.94 70.3 9.82 69.94 9.57 69.65Q9.48 69.54 9.37 69.46Q9.04 69.19 8.55 69.12L8.42 69.8C8.65 69.84 8.83 69.94 8.96 70.11Q8.99 70.15 9.01 70.18Q9.16 70.41 9.16 70.74Q9.16 71.06 9.02 71.3Q8.99 71.34 8.96 71.38C8.83 71.55 8.65 71.65 8.42 71.68L8.55 72.35C8.98 72.3 9.32 72.13 9.57 71.83ZM12.16 98.68L11.4 97.72C11.05 97.99 10.78 98.36 10.6 98.84C10.41 99.31 10.32 99.8 10.32 100.29Q10.32 101.47 10.82 102.35Q11.04 102.73 11.34 103.05C12.01 103.77 12.91 104.13 14.02 104.13Q15.12 104.13 15.95 103.66Q16.37 103.42 16.72 103.07Q17.04 102.74 17.26 102.36Q17.76 101.5 17.76 100.35C17.76 99.18 17.35 98.27 16.52 97.61L15.81 98.62C16.36 99.02 16.63 99.59 16.63 100.34Q16.63 101.07 16.31 101.6Q16.15 101.87 15.91 102.09C15.42 102.52 14.79 102.74 14.02 102.74Q13.26 102.74 12.67 102.42Q12.4 102.27 12.17 102.06C11.68 101.6 11.43 101.01 11.43 100.29C11.43 99.98 11.49 99.68 11.62 99.39C11.74 99.09 11.92 98.85 12.16 98.68ZM17.16 5.37Q17.76 4.54 17.76 3.27C17.76 2.53 17.57 1.9 17.19 1.38C16.8 0.85 16.27 0.59 15.6 0.59Q15.12 0.59 14.75 0.8Q14.6 0.88 14.47 1C14.17 1.27 13.97 1.62 13.87 2.05L13.84 2.05C13.75 1.69 13.56 1.4 13.27 1.17Q13.17 1.09 13.07 1.04Q12.7 0.83 12.22 0.83Q11.69 0.83 11.3 1.06Q11.03 1.22 10.83 1.49C10.49 1.93 10.32 2.52 10.32 3.25C10.32 4.26 10.63 5.04 11.26 5.59L12.04 4.8C11.59 4.44 11.37 3.95 11.37 3.32C11.37 2.99 11.46 2.71 11.65 2.46C11.83 2.21 12.06 2.08 12.35 2.08C13.05 2.08 13.4 2.56 13.4 3.53L13.4 4.05L14.46 4.05L14.46 3.55C14.46 2.44 14.81 1.89 15.52 1.89Q15.8 1.89 16.01 2Q16.22 2.11 16.38 2.32C16.59 2.61 16.69 2.94 16.69 3.33C16.69 4.02 16.42 4.58 15.88 5L16.73 5.85Q16.97 5.63 17.16 5.37ZM17.55 126.93C17.62 126.71 17.65 126.43 17.65 126.09Q17.65 125.48 17.38 125.04Q17.09 124.57 16.48 124.29Q15.3 123.74 12.69 123.74L11.6 123.74L11.6 121.34L17.58 121.34L17.58 120.08L10.5 120.08L10.5 124.95L12.52 124.95Q14.75 124.95 15.63 125.29C16.22 125.51 16.51 125.87 16.51 126.37Q16.51 126.46 16.5 126.56Q16.48 126.68 16.44 126.8L17.55 126.93ZM10.5 114.92L17.58 114.92L17.58 113.54L12.44 110.23L12.44 110.21L17.58 110.21L17.58 108.95L10.5 108.95L10.5 110.31L15.68 113.63L15.68 113.66L10.5 113.66L10.5 114.92ZM11.6 91.6L17.58 91.6L17.58 90.34L11.6 90.34L11.6 88.17L10.5 88.17L10.5 93.77L11.6 93.77L11.6 91.6ZM10.5 82.12L17.58 85.2L17.58 83.79L15.96 83.15L15.96 80.08L17.58 79.42L17.58 77.98L10.5 81.03L10.5 82.12ZM10.5 73.68L17.58 73.68L17.58 72.3L12.44 68.99L12.44 68.97L17.58 68.97L17.58 67.71L10.5 67.71L10.5 69.07L15.68 72.39L15.68 72.42L10.5 72.42L10.5 73.68ZM11.6 61.12L17.58 61.12L17.58 59.86L11.6 59.86L11.6 57.69L10.5 57.69L10.5 63.29L11.6 63.29L11.6 61.12ZM10.5 53.27L17.58 53.27L17.58 48.4L16.46 48.4L16.46 52.01L14.46 52.01L14.46 48.76L13.4 48.76L13.4 52.01L11.6 52.01L11.6 48.58L10.5 48.58L10.5 53.27ZM10.5 37.47L17.58 37.47L17.58 34.92C17.58 34.56 17.54 34.23 17.47 33.93C17.4 33.62 17.28 33.34 17.13 33.08C16.98 32.82 16.76 32.61 16.49 32.47C16.21 32.31 15.89 32.24 15.52 32.24Q15 32.24 14.62 32.47Q14.49 32.55 14.38 32.66C14.09 32.94 13.91 33.31 13.85 33.77L13.83 33.77C13.72 33.39 13.53 33.09 13.26 32.87Q13.16 32.78 13.04 32.72Q12.71 32.54 12.28 32.54Q11.68 32.54 11.28 32.82Q11.09 32.96 10.94 33.18C10.65 33.6 10.5 34.11 10.5 34.71L10.5 37.47ZM10.5 27.39L17.58 27.39L17.58 26.13L14.44 26.13L14.44 22.82L17.58 22.82L17.58 21.56L10.5 21.56L10.5 22.82L13.36 22.82L13.36 26.13L10.5 26.13L10.5 27.39ZM10.5 16.4L17.58 16.4L17.58 15.02L12.44 11.71L12.44 11.69L17.58 11.69L17.58 10.43L10.5 10.43L10.5 11.79L15.68 15.11L15.68 15.14L10.5 15.14L10.5 16.4ZM13.38 36.21L11.54 36.21L11.54 35.2Q11.54 34.48 11.75 34.14C11.88 33.91 12.11 33.8 12.42 33.8C12.73 33.8 12.96 33.91 13.13 34.13C13.3 34.35 13.38 34.67 13.38 35.09L13.38 36.21ZM14.88 80.52L14.88 82.72L12 81.61L14.88 80.52ZM16.52 36.21L14.46 36.21L14.46 35.03Q14.46 34.24 14.69 33.87C14.84 33.62 15.1 33.5 15.46 33.5C16.17 33.5 16.52 34.02 16.52 35.08L16.52 36.21Z" fill="#747D81" fill-opacity="1.000000" fill-rule="evenodd"/>
	<rect id="Rectangle 3" x="5.000000" y="159.000000" rx="10.000000" width="20.000000" height="37.000000" fill="#C4C4C4" fill-opacity="0"/>
	<rect id="Rectangle 3" x="5.500000" y="159.500000" rx="9.500000" width="19.000000" height="36.000000" stroke="#4A8BEC" stroke-opacity="1.000000" stroke-width="1.000000"/>
	<g filter="url(#filter_177_1732_dd)">
		<circle id="Ellipse 2" cx="15.000000" cy="170.000000" r="5.000000" fill="#4ABCEC" fill-opacity="1.000000"/>
	</g>
</svg>
