<svg width="40.000000" height="37.599991" viewBox="0 0 40 37.6" fill="none" xmlns="http://www.w3.org/2000/svg" xmlns:xlink="http://www.w3.org/1999/xlink">
	<desc>
			Created with Pixso.
	</desc>
	<defs/>
	<path id="Vector" d="M20 0C13.14 0 7.39 4.82 5.95 11.25C6.09 11.23 6.25 11.2 6.4 11.2C6.8 11.2 7.2 11.28 7.57 11.4C8.93 5.79 13.97 1.6 20 1.6C26.01 1.6 31.06 5.79 32.42 11.4C32.79 11.28 33.18 11.2 33.59 11.2C33.75 11.2 33.9 11.23 34.04 11.25C32.6 4.82 26.85 0 20 0ZM6.4 12.8C5.07 12.8 4 13.87 4 15.2L4 27.2C4 28.52 5.07 29.6 6.4 29.6C7.72 29.6 8.79 28.52 8.79 27.2L8.79 15.2C8.79 13.87 7.72 12.8 6.4 12.8ZM33.59 12.8C32.27 12.8 31.2 13.87 31.2 15.2L31.2 27.2C31.2 28.52 32.27 29.6 33.59 29.6C34.92 29.6 36 28.52 36 27.2L36 15.2C36 13.87 34.92 12.8 33.59 12.8ZM2.4 15.3C0.95 16.45 0 18.63 0 21.2C0 23.76 0.95 25.94 2.4 27.1L2.4 15.3ZM37.59 15.3L37.59 27.1C39.04 25.94 40 23.76 40 21.2C40 18.63 39.04 16.45 37.59 15.3ZM32.47 31.02C31.76 33.19 29.93 34.4 27.2 34.4L26.32 34.4C26.37 34.65 26.4 34.92 26.4 35.2C26.4 35.47 26.37 35.74 26.32 36L27.2 36C30.79 36 33.28 34.19 34.09 31.15C33.93 31.17 33.77 31.2 33.59 31.2C33.2 31.2 32.83 31.13 32.47 31.02ZM18.4 32.8C17.07 32.8 16 33.87 16 35.2C16 36.52 17.07 37.59 18.4 37.59L22.4 37.59C23.72 37.59 24.79 36.52 24.79 35.2C24.79 33.87 23.72 32.8 22.4 32.8L18.4 32.8Z" fill="#FFFFFF" fill-opacity="1.000000" fill-rule="nonzero"/>
</svg>
