<svg width="25.000000" height="18.000000" viewBox="0 0 25 18" fill="none" xmlns="http://www.w3.org/2000/svg" xmlns:xlink="http://www.w3.org/1999/xlink">
	<desc>
			Created with Pixso.
	</desc>
	<defs>
		<linearGradient x1="12.500000" y1="0.000000" x2="12.500000" y2="18.000000" id="paint_linear_177_2236_0" gradientUnits="userSpaceOnUse">
			<stop stop-color="#4ABCEC"/>
			<stop offset="1.000000" stop-color="#4A8BEC"/>
		</linearGradient>
	</defs>
	<path id="Vector" d="M0 0L0 0.5L0 18L25 18L25 0L0 0ZM1 1L24 1L24 2.28C23.77 2.47 14.9 10.18 14.17 10.82C13.52 11.38 12.83 11.5 12.5 11.5C12.16 11.5 11.47 11.38 10.82 10.82C10.64 10.66 9.31 9.5 8.34 8.66L8.33 8.65L8.33 8.65C5.48 6.17 1.16 2.42 1 2.28L1 1ZM1 3.6C1.87 4.36 4.92 7.01 7.54 9.28L1 14.45L1 3.6ZM24 3.6L24 14.45L17.44 9.3C20.06 7.02 23.12 4.36 24 3.6ZM8.3 9.95C8.92 10.49 10.03 11.45 10.17 11.57C11.02 12.31 11.93 12.49 12.5 12.49C13.06 12.49 13.97 12.31 14.82 11.57C14.96 11.45 16.06 10.49 16.67 9.96L24 15.73L24 17L1 17L1 15.73L8.3 9.95Z" fill="url(#paint_linear_177_2236_0)" fill-opacity="1.000000" fill-rule="nonzero"/>
</svg>
