<svg width="31.000000" height="24.528320" viewBox="0 0 31 24.5283" fill="none" xmlns="http://www.w3.org/2000/svg" xmlns:xlink="http://www.w3.org/1999/xlink">
	<desc>
			Created with Pixso.
	</desc>
	<defs>
		<linearGradient x1="29.333340" y1="-0.000010" x2="0.000092" y2="24.539341" id="paint_linear_177_2256_0" gradientUnits="userSpaceOnUse">
			<stop offset="0.250000" stop-color="#3B768F"/>
			<stop offset="0.536458" stop-color="#3EC6FF"/>
			<stop offset="0.817708" stop-color="#3B768F"/>
		</linearGradient>
	</defs>
	<path id="Vector" d="M13 0C5.82 0 0 5.03 0 11.24C0 13.97 1.13 16.48 3 18.42C3.04 18.52 4.01 21.06 1.15 23.64C1.1 23.69 1.06 23.75 1.04 23.81C1.01 23.87 1 23.94 1 24.01C1 24.15 1.05 24.28 1.14 24.37C1.24 24.47 1.36 24.52 1.5 24.52C1.53 24.52 1.57 24.52 1.6 24.51C4.48 24.34 6.94 22.88 8.44 21.75C9.86 22.21 11.39 22.48 13 22.48C20.17 22.48 26 17.45 26 11.24C26 5.03 20.17 0 13 0Z" fill="url(#paint_linear_177_2256_0)" fill-opacity="1.000000" fill-rule="nonzero"/>
	<path id="TALK" d="M5.35 14.39L5.35 10.33L6.74 10.33L6.74 8.72L2.05 8.72L2.05 10.33L3.44 10.33L3.44 14.39L5.35 14.39ZM8.42 8.72L6.19 14.39L8.2 14.39L8.48 13.55L10.28 13.55L10.58 14.39L12.65 14.39L10.44 8.72L8.42 8.72ZM13.05 8.72L13.05 14.39L16.85 14.39L16.85 12.75L14.97 12.75L14.97 8.72L13.05 8.72ZM19.32 12.13L20.83 14.39L23.16 14.39L20.93 11.31L23.06 8.72L20.82 8.72L19.31 10.81L19.29 10.81L19.29 8.72L17.44 8.72L17.44 14.39L19.3 14.39L19.3 12.13L19.32 12.13ZM9.4 10.7L9.86 12.1L8.94 12.1L9.4 10.7Z" fill="#08262B" fill-opacity="1.000000" fill-rule="evenodd"/>
</svg>
