<svg width="24.000000" height="24.000000" viewBox="0 0 24 24" fill="none" xmlns="http://www.w3.org/2000/svg" xmlns:xlink="http://www.w3.org/1999/xlink">
	<desc>
			Created with Pixso.
	</desc>
	<defs>
		<linearGradient x1="27.076931" y1="-0.000002" x2="0.000084" y2="24.010778" id="paint_linear_177_2247_0" gradientUnits="userSpaceOnUse">
			<stop offset="0.250000" stop-color="#3B768F"/>
			<stop offset="0.536458" stop-color="#3EC6FF"/>
			<stop offset="0.817708" stop-color="#3B768F"/>
		</linearGradient>
	</defs>
	<path id="Vector" d="M12 0C5.37 0 0 5.37 0 12C0 14.25 0.63 16.34 1.71 18.15L0.1 24L6.08 22.43C7.82 23.42 9.84 24 12 24C18.62 24 24 18.62 24 12C24 5.37 18.62 0 12 0ZM7.89 6.4C8.08 6.4 8.28 6.4 8.46 6.41C8.67 6.41 8.9 6.43 9.13 6.92C9.39 7.5 9.97 8.97 10.04 9.12C10.12 9.27 10.17 9.45 10.07 9.64C9.97 9.84 9.92 9.96 9.77 10.14C9.62 10.31 9.46 10.53 9.33 10.66C9.18 10.81 9.02 10.97 9.19 11.27C9.37 11.56 9.96 12.54 10.85 13.32C11.98 14.34 12.94 14.65 13.24 14.8C13.54 14.95 13.71 14.92 13.88 14.72C14.06 14.53 14.62 13.86 14.82 13.56C15.02 13.26 15.22 13.32 15.49 13.41C15.76 13.51 17.22 14.23 17.52 14.38C17.82 14.53 18.01 14.6 18.09 14.72C18.17 14.85 18.17 15.44 17.92 16.14C17.67 16.83 16.46 17.5 15.91 17.55C15.37 17.6 14.85 17.79 12.35 16.81C9.32 15.62 7.42 12.52 7.27 12.32C7.12 12.12 6.06 10.71 6.06 9.25C6.06 7.78 6.82 7.07 7.09 6.77C7.37 6.47 7.69 6.4 7.89 6.4Z" fill="url(#paint_linear_177_2247_0)" fill-opacity="1.000000" fill-rule="nonzero"/>
</svg>
