<svg width="40.000000" height="42.000000" viewBox="0 0 40 42" fill="none" xmlns="http://www.w3.org/2000/svg" xmlns:xlink="http://www.w3.org/1999/xlink">
	<desc>
			Created with Pixso.
	</desc>
	<defs>
		<linearGradient x1="45.128334" y1="0.000000" x2="0.000141" y2="42.018871" id="paint_linear_177_1781_0" gradientUnits="userSpaceOnUse">
			<stop offset="0.250000" stop-color="#3B768F"/>
			<stop offset="0.536458" stop-color="#3EC6FF"/>
			<stop offset="0.817708" stop-color="#3B768F"/>
		</linearGradient>
	</defs>
	<path id="Vector" d="M22.09 0C12.22 0 8.66 7.56 11.5 13.96C11.18 14.17 10.55 14.89 10.65 16.15C10.97 18.46 11.91 19.12 12.43 19.12C12.64 21.32 14.1 23.83 14.84 24.25C14.84 25.82 14.96 25.5 14.75 27.18C14.56 27.76 14.22 28.27 13.78 28.71L19.09 31L20.9 31L26.21 28.87C25.73 28.42 25.36 27.88 25.15 27.28C25.05 25.6 25.03 25.84 25.03 24.37C25.76 23.95 27.15 21.32 27.46 19.21C28.09 19.21 29.03 18.58 29.25 16.28C29.35 15.01 28.93 14.16 28.4 14.06C30.29 11.64 29.98 2.09 23.15 2.09L22.09 0ZM11.84 30.06C7.47 32.36 0 33.43 0 41C0 41 0 42 1 42L17 42L19 35L18.09 32.75L11.84 30.06ZM28.25 30.21L21.9 32.75L21 35L23 42L39 42C40.03 42 40 41 40 41C40 33.52 32.67 32.43 28.25 30.21Z" fill="url(#paint_linear_177_1781_0)" fill-opacity="1.000000" fill-rule="nonzero"/>
</svg>
