<svg width="50.000000" height="38.000000" viewBox="0 0 50 38" fill="none" xmlns="http://www.w3.org/2000/svg" xmlns:xlink="http://www.w3.org/1999/xlink">
	<desc>
			Created with Pixso.
	</desc>
	<defs>
		<linearGradient x1="56.410278" y1="-0.000015" x2="0.000168" y2="38.017052" id="paint_linear_177_1805_0" gradientUnits="userSpaceOnUse">
			<stop offset="0.250000" stop-color="#3B768F"/>
			<stop offset="0.536458" stop-color="#3EC6FF"/>
			<stop offset="0.817708" stop-color="#3B768F"/>
		</linearGradient>
	</defs>
	<path id="Vector" d="M26.9 0C18.03 0 14.74 6.85 17.28 12.65C16.96 12.86 16.45 13.52 16.56 14.68C16.77 16.79 17.72 17.3 18.25 17.4C18.46 19.41 19.73 21.74 20.46 22.06C20.46 23.43 20.44 24.58 20.34 26.06C18.72 30.3 8.39 29.32 7.06 36.93C7 37.26 7.34 38 8.03 38L42 38C43.01 38 42.99 37.25 42.93 36.9C41.58 29.32 31.27 30.3 29.65 26.06C29.55 24.47 29.53 23.43 29.53 22.06C30.26 21.74 31.44 19.3 31.65 17.4C32.18 17.4 33.02 16.76 33.34 14.65C33.44 13.49 33.01 12.76 32.59 12.65C34.28 10.54 33.97 1.9 27.75 1.9L26.9 0ZM15.15 5C8.48 5.11 5.55 10.42 7.56 14.96C7.34 15.07 6.92 15.63 7.03 16.59C7.24 18.3 7.88 18.71 8.31 18.71C8.52 20.32 9.46 22.11 10 22.43C10 23.5 10.01 23.47 9.9 24.75C9.03 27.48 0 27.28 0 34C0 34 0 35 1 35L5.53 35C7.05 30.67 11.21 29.01 14.34 27.78C16.07 27.1 17.83 26.41 18.37 25.56C18.43 24.63 18.46 23.84 18.46 22.96C17.51 21.88 16.81 20.19 16.46 18.75C15.65 18.14 14.77 16.99 14.56 14.84C14.46 13.82 14.68 12.97 15.03 12.31C14.23 9.84 14.28 7.27 15.15 5ZM38 5C37.04 5 35.91 5.07 34.84 5.25C35.64 7.59 35.67 10.4 34.96 12.4C35.28 13.09 35.42 13.92 35.34 14.84L35.31 14.9L35.31 14.96C35.01 16.93 34.29 18.12 33.43 18.78C33.11 20.13 32.45 21.83 31.53 22.93C31.53 23.79 31.56 24.57 31.62 25.56C32.16 26.41 33.93 27.1 35.65 27.78C38.78 29.01 42.93 30.67 44.46 35L49 35C50 35 50 34.03 50 34.03C50 26.29 41.44 28.12 40.15 24.59C40.04 23.41 40.03 23.52 40.03 22.34C40.56 22.02 41.55 20.22 41.65 18.71C42.08 18.71 42.72 18.27 42.93 16.56C43.04 15.7 42.72 15.07 42.4 14.96C43.69 13.25 43.48 6.5 38.65 6.5L38 5Z" fill="url(#paint_linear_177_1805_0)" fill-opacity="1.000000" fill-rule="nonzero"/>
</svg>
